<?xml version="1.0" standalone="no"?>
<!DOCTYPE svg PUBLIC "-//W3C//DTD SVG 1.1//EN"
"http://www.w3.org/Graphics/SVG/1.1/DTD/svg11.dtd">
<svg height="600" version="1.1" width="800" xmlns="http://www.w3.org/2000/svg"><g><rect fill="#f9f9f9" height="600" width="800" x="0" y="0" /><g transform="translate(40 40)"><g transform="translate(24 0)"><text fill="#333" font-family="Monaco" font-size="16" x="0" y="0">Vergleich</text><g transform="translate(0 20)"><g transform="translate(0 0)"><rect fill="#FF0000" height="10" width="10" x="0" y="-10" /><text fill="#666" font-family="Monaco" font-size="14" x="14" y="0">Trapezregel</text></g><g transform="translate(134 0)"><rect fill="#0000FF" height="10" width="10" x="0" y="-10" /><text fill="#666" font-family="Monaco" font-size="14" x="14" y="0">Trapezregel Trapezkanten</text></g><g transform="translate(372 0)"><rect fill="#006400" height="10" width="10" x="0" y="-10" /><text fill="#666" font-family="Monaco" font-size="14" x="14" y="0">Adaptiv</text></g><g transform="translate(474 0)"><rect fill="#EE7600" height="10" width="10" x="0" y="-10" /><text fill="#666" font-family="Monaco" font-size="14" x="14" y="0">Adaptiv Trapezkanten</text></g></g></g><g transform="translate(0 38)"><g transform="translate(24 0)"><g class="axis bottom"><g class="tick"><line stroke="#eee" stroke-width="1" x1="232.0000000000000000000000000" x2="232.0000000000000000000000000" y1="0" y2="464.0" /><text dy="1em" fill="#9c9c9c" font-family="Monaco" text-anchor="middle" x="232.0000000000000000000000000" y="468.0">2.5</text></g><g class="tick"><line stroke="#eee" stroke-width="1" x1="464.0000000000000000000000000" x2="464.0000000000000000000000000" y1="0" y2="464.0" /><text dy="1em" fill="#9c9c9c" font-family="Monaco" text-anchor="middle" x="464.0000000000000000000000000" y="468.0">5</text></g><g class="tick"><line stroke="#eee" stroke-width="1" x1="696" x2="696" y1="0" y2="464.0" /><text dy="1em" fill="#9c9c9c" font-family="Monaco" text-anchor="middle" x="696" y="468.0">7.5</text></g><g class="tick"><line stroke="#a8a8a8" stroke-width="1" x1="0" x2="0" y1="0" y2="464.0" /><text dy="1em" fill="#9c9c9c" font-family="Monaco" text-anchor="middle" x="0" y="468.0">0</text></g></g><g class="axis left"><g class="tick"><line stroke="#eee" stroke-width="1" x1="-4" x2="696.0" y1="460" y2="460" /><text dy="0.32em" fill="#9c9c9c" font-family="Monaco" text-anchor="end" x="-8" y="460">-1</text></g><g class="tick"><line stroke="#eee" stroke-width="1" x1="-4" x2="696.0" y1="153.3333333333333333333333333" y2="153.3333333333333333333333333" /><text dy="0.32em" fill="#9c9c9c" font-family="Monaco" text-anchor="end" x="-8" y="153.3333333333333333333333333">1</text></g><g class="tick"><line stroke="#eee" stroke-width="1" x1="-4" x2="696.0" y1="0" y2="0" /><text dy="0.32em" fill="#9c9c9c" font-family="Monaco" text-anchor="end" x="-8" y="0">2</text></g><g class="tick"><line stroke="#a8a8a8" stroke-width="1" x1="-4" x2="696.0" y1="306.6666666666666666666666667" y2="306.6666666666666666666666667" /><text dy="0.32em" fill="#9c9c9c" font-family="Monaco" text-anchor="end" x="-8" y="306.6666666666666666666666667">0</text></g></g><g><g class="series lines"><path d="M 92.79999999999999999999999998 291.3333330172897769894113651 L 148.4800000000000082422957348 275.8831287233172006404894697 L 204.1600000000000164845914696 204.0362325175455534183773428 L 259.8400000000000247268872044 264.8747194190806867701108256 L 315.5200000000000329691829393 393.2750707643451907694990647 L 371.2000000000000000000000000 257.9127384664342285495545562 L 426.8799999999999670308170607 205.1767196995166571878617864 L 482.5599999999999340616341215 124.1509262745781313104960948 L 538.2399999999999010924511822 217.4785612181133317063104945 L 593.9199999999998681232682429 208.5333328618517626888243892 L 649.5999999999998351540853037 199.3333333333333571661209287" fill="none" stroke="#FF0000" stroke-width="2" /></g><g class="series dots"><circle cx="92.79999999999999999999999998" cy="291.3333330172897769894113651" fill="#0000FF" r="3" /><circle cx="148.4800000000000082422957348" cy="275.8831287233172006404894697" fill="#0000FF" r="3" /><circle cx="204.1600000000000164845914696" cy="204.0362325175455534183773428" fill="#0000FF" r="3" /><circle cx="259.8400000000000247268872044" cy="264.8747194190806867701108256" fill="#0000FF" r="3" /><circle cx="315.5200000000000329691829393" cy="393.2750707643451907694990647" fill="#0000FF" r="3" /><circle cx="371.2000000000000000000000000" cy="257.9127384664342285495545562" fill="#0000FF" r="3" /><circle cx="426.8799999999999670308170607" cy="205.1767196995166571878617864" fill="#0000FF" r="3" /><circle cx="482.5599999999999340616341215" cy="124.1509262745781313104960948" fill="#0000FF" r="3" /><circle cx="538.2399999999999010924511822" cy="217.4785612181133317063104945" fill="#0000FF" r="3" /><circle cx="593.9199999999998681232682429" cy="208.5333328618517626888243892" fill="#0000FF" r="3" /><circle cx="649.5999999999998351540853037" cy="199.3333333333333571661209287" fill="#0000FF" r="3" /></g><g class="series lines"><path d="M 92.79999999999999999999999998 291.3333330172897769894113651 L 119.3142857142857025110060931 286.9467047191615466372738296 L 145.8285714285714050220121862 278.6785658189369579984528968 L 172.3428571428571075330182793 176.2436938360935216133877172 L 198.8571428571428100440243725 171.8627429917341246460675090 L 225.3714285714285125550304656 265.5372939823879785414817433 L 251.8857142857142150660365587 265.3614884480809547421623999 L 278.3999999999999175770426519 273.2530328062874891426048407 L 304.9142857142856200880487450 353.1615900078826679002001280 L 331.4285714285713225990548381 397.6111842121370439547452709 L 357.9428571428570251100609312 290.3477106466494905845365793 L 384.4571428571427276210670243 245.5035317589716237218766537 L 410.9714285714284301320731174 232.9344369160001163946797456 L 437.4857142857141326430792106 166.5996231392745241528530187 L 463.9999999999998351540853037 76.6666666926091326198881386 L 490.5142857142855376650913968 157.8376578420624894623832309 L 517.0285714285712401760974899 215.3830245015604812527006591 L 543.5428571428569426871035830 216.7583099414272163052430642 L 570.0571428571426451981096761 212.4758644752491483960928538 L 596.5714285714283477091157693 208.0952378851101366071437345 L 623.0857142857140502201218624 203.7142857142592681600016628 L 649.5999999999997527311279555 199.3333333333333741895406395" fill="none" stroke="#006400" stroke-width="2" /></g><g class="series dots"><circle cx="92.79999999999999999999999998" cy="291.3333330172897769894113651" fill="#EE7600" r="3" /><circle cx="119.3142857142857025110060931" cy="286.9467047191615466372738296" fill="#EE7600" r="3" /><circle cx="145.8285714285714050220121862" cy="278.6785658189369579984528968" fill="#EE7600" r="3" /><circle cx="172.3428571428571075330182793" cy="176.2436938360935216133877172" fill="#EE7600" r="3" /><circle cx="198.8571428571428100440243725" cy="171.8627429917341246460675090" fill="#EE7600" r="3" /><circle cx="225.3714285714285125550304656" cy="265.5372939823879785414817433" fill="#EE7600" r="3" /><circle cx="251.8857142857142150660365587" cy="265.3614884480809547421623999" fill="#EE7600" r="3" /><circle cx="278.3999999999999175770426519" cy="273.2530328062874891426048407" fill="#EE7600" r="3" /><circle cx="304.9142857142856200880487450" cy="353.1615900078826679002001280" fill="#EE7600" r="3" /><circle cx="331.4285714285713225990548381" cy="397.6111842121370439547452709" fill="#EE7600" r="3" /><circle cx="357.9428571428570251100609312" cy="290.3477106466494905845365793" fill="#EE7600" r="3" /><circle cx="384.4571428571427276210670243" cy="245.5035317589716237218766537" fill="#EE7600" r="3" /><circle cx="410.9714285714284301320731174" cy="232.9344369160001163946797456" fill="#EE7600" r="3" /><circle cx="437.4857142857141326430792106" cy="166.5996231392745241528530187" fill="#EE7600" r="3" /><circle cx="463.9999999999998351540853037" cy="76.6666666926091326198881386" fill="#EE7600" r="3" /><circle cx="490.5142857142855376650913968" cy="157.8376578420624894623832309" fill="#EE7600" r="3" /><circle cx="517.0285714285712401760974899" cy="215.3830245015604812527006591" fill="#EE7600" r="3" /><circle cx="543.5428571428569426871035830" cy="216.7583099414272163052430642" fill="#EE7600" r="3" /><circle cx="570.0571428571426451981096761" cy="212.4758644752491483960928538" fill="#EE7600" r="3" /><circle cx="596.5714285714283477091157693" cy="208.0952378851101366071437345" fill="#EE7600" r="3" /><circle cx="623.0857142857140502201218624" cy="203.7142857142592681600016628" fill="#EE7600" r="3" /><circle cx="649.5999999999997527311279555" cy="199.3333333333333741895406395" fill="#EE7600" r="3" /></g></g></g></g></g></g></svg>