<?xml version="1.0" standalone="no"?>
<!DOCTYPE svg PUBLIC "-//W3C//DTD SVG 1.1//EN"
"http://www.w3.org/Graphics/SVG/1.1/DTD/svg11.dtd">
<svg height="600" version="1.1" width="800" xmlns="http://www.w3.org/2000/svg"><g><rect fill="#f9f9f9" height="600" width="800" x="0" y="0" /><g transform="translate(40 40)"><g transform="translate(24 0)"><text fill="#333" font-family="Monaco" font-size="16" x="0" y="0">Graph</text></g><g transform="translate(0 20)"><g transform="translate(24 0)"><g class="axis bottom"><g class="tick"><line stroke="#eee" stroke-width="1" x1="232.0000000000000000000000000" x2="232.0000000000000000000000000" y1="0" y2="482.0" /><text dy="1em" fill="#9c9c9c" font-family="Monaco" text-anchor="middle" x="232.0000000000000000000000000" y="486.0">2.5</text></g><g class="tick"><line stroke="#eee" stroke-width="1" x1="464.0000000000000000000000000" x2="464.0000000000000000000000000" y1="0" y2="482.0" /><text dy="1em" fill="#9c9c9c" font-family="Monaco" text-anchor="middle" x="464.0000000000000000000000000" y="486.0">5</text></g><g class="tick"><line stroke="#eee" stroke-width="1" x1="696" x2="696" y1="0" y2="482.0" /><text dy="1em" fill="#9c9c9c" font-family="Monaco" text-anchor="middle" x="696" y="486.0">7.5</text></g><g class="tick"><line stroke="#a8a8a8" stroke-width="1" x1="0" x2="0" y1="0" y2="482.0" /><text dy="1em" fill="#9c9c9c" font-family="Monaco" text-anchor="middle" x="0" y="486.0">0</text></g></g><g class="axis left"><g class="tick"><line stroke="#eee" stroke-width="1" x1="-4" x2="696.0" y1="478" y2="478" /><text dy="0.32em" fill="#9c9c9c" font-family="Monaco" text-anchor="end" x="-8" y="478">-1</text></g><g class="tick"><line stroke="#eee" stroke-width="1" x1="-4" x2="696.0" y1="159.3333333333333333333333333" y2="159.3333333333333333333333333" /><text dy="0.32em" fill="#9c9c9c" font-family="Monaco" text-anchor="end" x="-8" y="159.3333333333333333333333333">1</text></g><g class="tick"><line stroke="#eee" stroke-width="1" x1="-4" x2="696.0" y1="0" y2="0" /><text dy="0.32em" fill="#9c9c9c" font-family="Monaco" text-anchor="end" x="-8" y="0">2</text></g><g class="tick"><line stroke="#a8a8a8" stroke-width="1" x1="-4" x2="696.0" y1="318.6666666666666666666666667" y2="318.6666666666666666666666667" /><text dy="0.32em" fill="#9c9c9c" font-family="Monaco" text-anchor="end" x="-8" y="318.6666666666666666666666667">0</text></g></g><g><g class="series lines"><path d="M 92.79999999999999999999999998 302.7333330049228552194318098 L 93.35680000000000049453774409 302.6377329161422780149740912 L 93.91360000000000098907548814 302.5421328041238851573139594 L 94.47040000000000148361323233 302.4465326629938471310795241 L 95.02720000000000197815097637 302.3509324854489543713912761 L 95.58400000000000247268872042 302.2553322624230674649699798 L 96.14080000000000296722646454 302.1597319826792203689702632 L 96.69760000000000346176420859 302.0641316323117479269999564 L 97.25440000000000395630195277 301.9685311941395916742377399 L 97.81120000000000445083969682 301.8729306469682695523992778 L 98.36800000000000494537744087 301.7773299646936700594649730 L 98.92480000000000543991518498 301.6817291152155642945202155 L 99.48160000000000593445292903 301.5861280591228210471813989 L 100.0384000000000064289906732 301.4905267481050485193586990 L 100.5952000000000069235284173 301.3949251230371230344159036 L 101.1520000000000074180661613 301.2993231116732938216588404 L 101.7088000000000079126039054 301.2037206258761365684772926 L 102.2656000000000084071416495 301.1081175582924187583699904 L 102.8224000000000089016793937 301.0125137783725675910684316 L 103.3792000000000093962171377 300.9169091276125338751956662 L 103.9360000000000098907548818 300.8213034138764138495740024 L 104.4928000000000103852926259 300.7256964046342436562101834 L 105.0496000000000108798303699 300.6300878189222984815387463 L 105.6064000000000113743681141 300.5344773178017586667820638 L 106.1632000000000118689058582 300.4388644930558744013578594 L 106.7200000000000123634436022 300.3432488538248468871542466 L 107.2768000000000128579813463 300.2476298108311137021371924 L 107.8336000000000133525190904 300.1520066577949050849275873 L 108.3904000000000138470568346 300.0563785495801891837578761 L 108.9472000000000143415945786 299.9607444765435546411384375 L 109.5040000000000148361323226 299.8651032344827349248224854 L 110.0608000000000153306700668 299.7694533894960824960129742 L 110.6176000000000158252078108 299.6737932369690559271842762 L 111.1744000000000163197455550 299.5781207537973074480260512 L 111.7312000000000168142832990 299.4824335428377435341928958 L 112.2880000000000173088210431 299.3867287684478139716167295 L 112.8448000000000178033587872 299.2910030818286329275708842 L 113.4016000000000182978965313 299.1952525347281814279328434 L 113.9584000000000187924342754 299.0994724798863796296396108 L 114.5152000000000192869720195 299.0036574564130553433027871 L 115.0720000000000197815097635 298.9078010580825269607944487 L 115.6288000000000202760475077 298.8118957823039566941888031 L 116.1856000000000207705852517 298.7159328572844600446778428 L 116.7424000000000212651229959 298.6199020446422040161079299 L 117.2992000000000217596607399 298.5237914144493831340258319 L 117.8560000000000222541984840 298.4275870893904246313373581 L 118.4128000000000227487362281 298.3312729544100239860900577 L 118.9696000000000232432739721 298.2348303278996045813838596 L 119.5264000000000237378117163 298.1382375901312885013716424 L 120.0832000000000242323494604 298.0414697642977634450822677 L 120.6400000000000247268872044 297.9444980451571337957498524 L 121.1968000000000252214249485 297.8472892699174965717527167 L 121.7536000000000257159626926 297.7498053256309413587092176 L 122.3104000000000262105004368 297.6520024870055853109344450 L 122.8672000000000267050381808 297.5538306781932360774630317 L 123.4240000000000271995759249 297.4552326517761905999570615 L 123.9808000000000276941136690 297.3561430778667346401059983 L 124.5376000000000281886514130 297.2564875359566634038799293 L 125.0944000000000286831891572 297.1561814019205486533022527 L 125.6512000000000291777269013 297.0551286223969906415594741 L 126.2080000000000296722646453 296.9532203686584466706399610 L 126.7648000000000301668023894 296.8503335620451187293333816 L 127.3216000000000306613401335 296.7463292630962496213934779 L 127.8784000000000311558778777 296.6410509166773664668781407 L 128.4352000000000316504156217 296.5343224456906199478408345 L 128.9920000000000321449533658 296.4259461863837688544442983 L 129.5488000000000326394911099 296.3157006588580567226406023 L 130.1056000000000331340288539 296.2033381671343126306794602 L 130.6624000000000336285665981 296.0885822240867274087368818 L 131.2192000000000341231043422 295.9711247977123249793448186 L 131.7760000000000346176420862 295.8506233765884357126788965 L 132.3328000000000351121798303 295.7266978539951138108913634 L 132.8896000000000356067175744 295.5989272320605169008800317 L 133.4464000000000361012553186 295.4668461494361133741944532 L 134.0032000000000365957930626 295.3299412384371508596044482 L 134.5600000000000370903308066 295.1876473202992143263223568 L 135.1168000000000375848685508 295.0393434502089219928500085 L 135.6736000000000380794062948 294.8843488270671118386031159 L 136.2304000000000385739440390 294.7219185865319050302938801 L 136.7872000000000390684817830 294.5512394997595245760280135 L 137.3440000000000395630195271 294.3714256043980024106036335 L 137.9008000000000400575572712 294.1815137987730339926469488 L 138.4576000000000405520950153 293.9804594348102990501262848 L 139.0144000000000410466327594 293.7671319500304416190890796 L 139.5712000000000415411705035 293.5403105838907866035706699 L 140.1280000000000420357082475 293.2986802287838383196394432 L 140.6848000000000425302459917 293.0408274710788184558296620 L 141.2416000000000430247837357 292.7652368826461896274733950 L 141.7984000000000435193214799 292.4702876282620110555872846 L 142.3552000000000440138592239 292.1542504590706936055492330 L 142.9120000000000445083969680 291.8152851668020098345005901 L 143.4688000000000450029347121 291.4514385775982846886004533 L 144.0256000000000454974724561 291.0606431680088158620023364 L 144.5824000000000459920102003 290.6407163888458107248169426 L 145.1392000000000464865479444 290.1893607850600161901510887 L 145.6960000000000469810856884 289.7041650014718995690780426 L 146.2528000000000474756234325 289.1826057649729547205375014 L 146.8096000000000479701611766 288.6220509335789973041445459 L 147.3664000000000484646989208 288.0197637013625805990635343 L 147.9232000000000489592366648 287.3729080457105805971688521 L 148.4800000000000494537744089 286.6785554994469554975407752 L 149.0368000000000499483121530 285.9336933250413519587892115 L 149.5936000000000504428498970 285.1352341613151763673646618 L 150.1504000000000509373876412 284.2800272046947868687105653 L 150.7072000000000514319253853 283.3648709771037159284764092 L 151.2640000000000519264631293 282.3865277210035184170718499 L 151.8208000000000524210008734 281.3417394488854303783812820 L 152.3776000000000529155386175 280.2272456597007699493258788 L 152.9344000000000534100763617 279.0398027183441852505652036 L 153.4912000000000539046141057 277.7762048764454670216987135 L 154.0480000000000543991518498 276.4333068934851055746075113 L 154.6048000000000548936895939 275.0080481967615577317450477 L 155.1616000000000553882273379 273.4974784971677778111498469 L 155.7184000000000558827650821 271.8987847552778156131244221 L 156.2752000000000563773028262 270.2093193691265719339848298 L 156.8320000000000568718405702 268.4266294315421675179914966 L 157.3888000000000573663783143 266.5484868812448347637674335 L 157.9456000000000578609160584 264.5729193484658160843518241 L 158.5024000000000583554538026 262.4982414728947921478408034 L 159.0592000000000588499915466 260.3230864496844128760007683 L 159.6160000000000593445292907 258.0464375383878814866160194 L 160.1728000000000598390670348 255.6676592504527978736798369 L 160.7296000000000603336047788 253.1865279136190265418804301 L 161.2864000000000608281425230 250.6032612966435895544374073 L 161.8432000000000613226802670 247.9185469655692888683399626 L 162.4000000000000618172180111 245.1335690336173733783198258 L 162.9568000000000623117557552 242.2500329610484010034454627 L 163.5136000000000628062934993 239.2701880593027041754794481 L 164.0704000000000633008312434 236.1968473556682098409472321 L 164.6272000000000637953689875 233.0334044808560414185905074 L 165.1840000000000642899067315 229.7838472523692184464512896 L 165.7408000000000647844444757 226.4527676415509621262363755 L 166.2976000000000652789822197 223.0453678317619656823467267 L 166.8544000000000657735199639 219.5674620992590910795172477 L 167.4112000000000662680577079 216.0254742769667413160306069 L 167.9680000000000667625954520 212.4264305943100845652793396 L 168.5248000000000672571331961 208.7779477234050800049658392 L 169.0816000000000677516709402 205.0882159028996341021411353 L 169.6384000000000682462086843 201.3659770552755353308545712 L 170.1952000000000687407464284 197.6204978610381746140234327 L 170.7520000000000692352841724 193.8615378034488301306481617 L 171.3088000000000697298219165 190.0993122497523633758949775 L 171.8656000000000702243596607 186.3444506886168388071212122 L 172.4224000000000707188974048 182.6079502980825376064662653 L 172.9792000000000712134351488 178.9011250730335002382768532 L 173.5360000000000717079728929 175.2355507953340586861183207 L 174.0928000000000722025106370 171.6230061825838668632115968 L 174.6496000000000726970483811 168.0754106021944624208922883 L 175.2064000000000731915861252 164.6047587854378395633148102 L 175.7632000000000736861238693 161.2230530205430925801598127 L 176.3200000000000741806616133 157.9422333441222193369431656 L 176.8768000000000746751993574 154.7741062855373953925190259 L 177.4336000000000751697371016 151.7302727486785993704643261 L 177.9904000000000756642748457 148.8220556394552684942311770 L 178.5472000000000761588125897 146.0604278646608134017981228 L 179.1040000000000766533503338 143.4559413383514915688958051 L 179.6608000000000771478880779 141.0186576352030953055797606 L 180.2176000000000776424258220 138.7580809262712696986833785 L 180.7744000000000781369635661 136.6830938210931845055995381 L 181.3312000000000786315013102 134.8018967211384451232447646 L 181.8880000000000791260390542 133.1219512633715263601648834 L 182.4448000000000796205767983 131.6499283993524382907480685 L 183.0016000000000801151145424 130.3916616152103048105933187 L 183.5584000000000806096522866 129.3521057514186806495596708 L 184.1152000000000811041900306 128.5353018291069543780717291 L 184.6720000000000815987277747 127.9443482322889022266091767 L 185.2288000000000820932655188 127.5813785335754708682998171 L 185.7856000000000619820639258 127.4475461854369979045979259 L 186.3424000000000418708623329 127.5430162307210988359429393 L 186.8992000000000217596607399 127.8669641157897981879424757 L 187.4560000000000016484591470 128.4175816182188299604168454 L 188.0127999999999815372575540 129.1920898294290730075791392 L 188.5695999999999614260559610 130.1867590618147832633629453 L 189.1263999999999413148543681 131.3969354808150337513931543 L 189.6831999999999212036527752 132.8170741958259299941857990 L 190.2399999999999010924511822 134.4407784807184609299213208 L 190.7967999999998809812495892 136.2608447358051361556855833 L 191.3535999999998608700479962 138.2693127491116703945787473 L 191.9103999999998407588464033 140.4575207664100486108319880 L 192.4671999999998206476448104 142.8161648372198585891605186 L 193.0239999999998005364432175 145.3353618683549390115198700 L 193.5807999999997804252416245 148.0047157879513410883021152 L 194.1375999999997603140400315 150.8133862015278774393323147 L 194.6943999999997402028384386 153.7501589076526358941994961 L 195.2511999999997200916368456 156.8035176342750823449042249 L 195.8079999999996999804352527 159.9617163576676421854472210 L 196.3647999999996798692336597 163.2128515740450903267107682 L 196.9215999999996597580320668 166.5449339090326422348672015 L 197.4783999999996396468304738 169.9459584718770646845816448 L 198.0351999999996195356288808 173.4039733892009262916644729 L 198.5919999999995994244272878 176.9071459866704580932150748 L 199.1487999999995793132256949 180.4438261255995934462248442 L 199.7055999999995592020241020 184.0026062446057648624986313 L 200.2623999999995390908225090 187.5723777032876211645628928 L 200.8191999999995189796209160 191.1423830747906729143892335 L 201.3759999999994988684193231 194.7022640863344248677672491 L 201.9327999999994787572177301 198.2421049605475420474220983 L 202.4895999999994586460161373 201.7524709650576766328811118 L 203.0463999999994385348145443 205.2244420324878278657128779 L 203.6031999999994184236129513 208.6496413671221246873462481 L 204.1599999999993983124113584 212.0202590073588562180617601 L 204.7167999999993782012097654 215.3290703640520619514357273 L 205.2735999999993580900081724 218.5694498033879045924739633 L 205.8303999999993379788065795 221.7353793885413835162978558 L 206.3871999999993178676049866 224.8214529365750309342075752 L 206.9439999999992977564033936 227.8228755854921485646258361 L 207.5007999999992776452018006 230.7354591007474566843882258 L 208.0575999999992575340002076 233.5556131806076749501954737 L 208.6143999999992374227986147 236.2803330453901315226043304 L 209.1711999999992173115970218 238.9071836166939047559528338 L 209.7279999999991972003954288 241.4342806092577804477627978 L 210.2847999999991770891938358 243.8602688700740012868924585 L 210.8415999999991569779922429 246.1842983069610274101298348 L 211.3983999999991368667906499 248.4059977521139119434797256 L 211.9551999999991167555890569 250.5254471054150895807192494 L 212.5119999999990966443874641 252.5431480977576658893587100 L 213.0687999999990765331858711 254.4599940065975500017951087 L 213.6255999999990564219842782 256.2772386447332348587598478 L 214.1823999999990363107826852 257.9964649292556534421194670 L 214.7391999999990161995810922 259.6195533210824731481144075 L 215.2959999999989960883794992 261.1486504068584122428831051 L 215.8527999999989759771779063 262.5861378746475454463530733 L 216.4095999999989558659763134 263.9346021131362192517026225 L 216.9663999999989357547747204 265.1968046413742500592528965 L 217.5231999999989156435731274 266.3756535527617717399688029 L 218.0799999999988955323715345 267.4741761333756591885920291 L 218.6367999999988754211699415 268.4954927911394530296954978 L 219.1935999999988553099683486 269.4427924090647430421796570 L 219.7503999999988351987667556 270.3193092130964299002471307 L 220.3071999999988150875651627 271.1283012232129527863122575 L 220.8639999999987949763635697 271.8730303355739510810333096 L 221.4207999999987748651619767 272.5567440638443329111358555 L 221.9775999999987547539603839 273.1826589495019451669932665 L 222.5343999999987346427587909 273.7539456340689618674133499 L 223.0911999999987145315571980 274.2737155708773052846064880 L 223.6479999999986944203556050 274.7450093402447401924604264 L 224.2047999999986743091540120 275.1707865198265008007301920 L 224.7615999999986541979524190 275.5539170514233395422228531 L 225.3183999999986340867508261 275.8971740366521528583139873 L 225.8751999999986139755492332 276.2032278865795977459048534 L 226.4319999999985938643476402 276.4746417446278979509107406 L 226.9887999999985737531460472 276.7138680977102050961846658 L 227.5455999999985536419444543 276.9232464875592768886273613 L 228.1023999999985335307428613 277.1050022324788092061472373 L 228.6591999999985134195412684 277.2612460691717599277813140 L 229.2159999999984933083396754 277.3939746247733836674124557 L 229.7727999999984731971380825 277.5050716306284644592968411 L 230.3295999999984530859364895 277.5963097915870431882841747 L 230.8863999999984329747348965 277.6693532275402903630734386 L 231.4431999999984128635333035 277.7257604074652398799353629 L 231.9999999999983927523317107 277.7669875002877737750021463 L 232.5567999999983726411301177 277.7943920713057370797116619 L 233.1135999999983525299285248 277.8092370576397553601684839 L 233.6703999999983324187269318 277.8126949611106266679882993 L 234.2271999999983123075253388 277.8058522019943580305678666 L 234.7839999999982921963237459 277.7897135822046296900940850 L 235.3407999999982720851221530 277.7652068115304954491288451 L 235.8975999999982519739205600 277.7331870555541344739817571 L 236.4543999999982318627189670 277.6944414687394857566005157 L 237.0111999999982117515173741 277.6496936808723624186730679 L 237.5679999999981916403157811 277.5996082095112842032709939 L 238.1247999999981715291141881 277.5447947753455160135871438 L 238.6815999999981514179125952 277.4858125013311742623756117 L 239.2383999999981313067110023 277.4231739801713628734702865 L 239.7951999999981111955094093 277.3573491981107172662153934 L 240.3519999999980910843078163 277.2887693061246289216725813 L 240.9087999999980709731062233 277.2178302323960090713939052 L 241.4655999999980508619046304 277.1448961324927868776768492 L 242.0223999999980307507030375 277.0703026758919537142489276 L 242.5791999999980106395014446 276.9943601694516072120322292 L 243.1359999999979905282998516 276.9173565201226148158042406 L 243.6927999999979704170982586 276.8395600406281383080534890 L 244.2495999999979503058966657 276.7612221030406733183563498 L 244.8063999999979301946950727 276.6825796461639063913059052 L 245.3631999999979100834934798 276.6038575434014327170118008 L 245.9199999999978899722918868 276.5252708383799726081046325 L 246.4767999999978698610902939 276.4470268560091910462854041 L 247.0335999999978497498887009 276.3693271969208005896708377 L 247.5903999999978296386871079 276.2923696233502972215608414 L 248.1471999999978095274855149 276.2163498445233077808561954 L 248.7039999999977894162839220 276.1414632094985074362014643 L 249.2607999999977693050823291 276.0679063152135838121736811 L 249.8175999999977491938807361 275.9958785371947462087642105 L 250.3743999999977290826791431 275.9255834900333916130203231 L 250.9311999999977089714775502 275.8572304243183211565811537 L 251.4879999999976888602759572 275.7910355662471076539551025 L 252.0447999999976687490743644 275.7272234056357618584935191 L 252.6015999999976486378727714 275.6660279375087725384219085 L 253.1583999999976285266711784 275.6076938618895895150018305 L 253.7151999999976084154695855 275.5524777458306850223361076 L 254.2719999999975883042679925 275.5006491511282074036159884 L 254.8287999999975681930663996 275.4524917305625674549910779 L 255.3855999999975480818648066 275.4083042948997317826235568 L 255.9423999999975279706632137 275.3684018522783005418948695 L 256.4991999999975078594616207 275.3331166210019246657717909 L 257.0559999999974877482600277 275.3027990161546421828594097 L 257.6127999999974676370584347 275.2778186098618223853762288 L 258.1695999999974475258568418 275.2585650644347757080391640 L 258.7263999999974274146552489 275.2454490370622828265823045 L 259.2831999999974073034536559 275.2389030541511573124680013 L 259.8399999999973871922520629 275.2393823528707740659153084 L 260.3967999999973670810504700 275.2473656869254818868597568 L 260.9535999999973469698488770 275.2633560930653350284913472 L 261.5103999999973268586472842 275.2878816143514385898309153 L 262.0671999999973067474456912 275.3214959757183879126192967 L 262.6239999999972866362440982 275.3647792069258884254760271 L 263.1807999999972665250425053 275.4183382075649880367980890 L 263.7375999999972464138409123 275.4828072483844641308673810 L 264.2943999999972263026393193 275.5588484028319130603179587 L 264.8511999999972061914377264 275.6471519023631592630133961 L 265.4079999999971860802361334 275.7484364087668996523561305 L 265.9647999999971659690345405 275.8634491964795662684769202 L 266.5215999999971458578329475 275.9929662376325072055867812 L 267.0783999999971257466313545 276.1377921823815745720291185 L 267.6351999999971056354297616 276.2987602269207575063821499 L 268.1919999999970855242281687 276.4767318614806059044279134 L 268.7487999999970654130265757 276.6725964905596083139490323 L 269.3055999999970453018249827 276.8872709176381645320338029 L 269.8623999999970251906233898 277.1216986866800025361238606 L 270.4191999999970050794217968 277.3768492728407034271972028 L 270.9759999999969849682202038 277.6537171149773639925821082 L 271.5327999999969648570186110 277.9533204827916163341209692 L 272.0895999999969447458170180 278.2767001717424135698308874 L 272.6463999999969246346154251 278.6249180192358609516508257 L 273.2031999999969045234138321 278.9990552360408189724871875 L 273.7599999999968844122122391 279.4002105473912900834854157 L 274.3167999999968643010106461 279.8294981388203293744728247 L 274.8735999999968441898090532 280.2880454024282444273434104 L 275.4303999999968240786074603 280.7769904800182644843964397 L 275.9871999999968039674058673 281.2974796003367696783925566 L 276.5439999999967838562042743 281.8506642085317415169498644 L 277.1007999999967637450026814 282.4376978868908224888182682 L 277.6575999999967436338010884 283.0597330669375617887932132 L 278.2143999999967235225994955 283.7179175340492581399350531 L 278.7711999999967034113979025 284.4133907269079953872292777 L 279.3279999999966833001963096 285.1472798353059897591421645 L 279.8847999999966631889947166 285.9206957010911221243413630 L 280.4415999999966430777931236 286.7347285283552062636521402 L 280.9983999999966229665915306 287.5904434103290295092018407 L 281.5551999999966028553899378 288.4888756818492191643284646 L 282.1119999999965827441883448 289.4310261076944527832329375 L 282.6687999999965626329867519 290.4178559185461495998718343 L 283.2255999999965425217851589 291.4502817078014401489897504 L 283.7823999999965224105835659 292.5291702039470257597682708 L 284.3391999999965022993819730 293.6553329346799534234809433 L 284.8959999999964821881803801 294.8295208004274948014137673 L 285.4527999999964620769787871 296.0524185763605916621443726 L 286.0095999999964419657771941 297.3246393634046788786070199 L 286.5663999999964218545756012 298.6467190101159896638745769 L 287.1231999999964017433740082 300.0191105285990506764311665 L 287.6799999999963816321724153 301.4421785288809486994902424 L 288.2367999999963615209708223 302.9161936973180580534581452 L 288.7935999999963414097692293 304.4413273456787920231055485 L 289.3503999999963212985676364 306.0176460585109951736034379 L 289.9071999999963011873660434 307.6451064672528197078508564 L 290.4639999999962810761644504 309.3235501802687683984653215 L 291.0207999999962609649628576 311.0526988985799992093461696 L 291.5775999999962408537612646 312.8321497474960862043384206 L 292.1343999999962207425596717 314.6613708546376150983666283 L 292.6911999999962006313580787 316.5396972049532795893493169 L 293.2479999999961805201564857 318.4663268032758757601167568 L 293.8047999999961604089548928 320.4403171747190149920569979 L 294.3615999999961402977532999 322.4605822327857015396901375 L 294.9183999999961201865517069 324.5258895444351347296200553 L 295.4751999999961000753501139 326.6348580205314607501539589 L 296.0319999999960799641485210 328.7859560590742745711523298 L 296.5887999999960598529469280 330.9775001673849810594300417 L 297.1455999999960397417453350 333.2076540879949317168022086 L 297.7023999999960196305437421 335.4744284513517094866349074 L 298.2591999999959995193421491 337.7756809766338503090802685 L 298.8159999999959794081405562 340.1091172399429578924549370 L 299.3727999999959592969389632 342.4722920269356440196399187 L 299.9295999999959391857373702 344.8626112845702826511147994 L 300.4863999999959190745357773 347.2773346840867710882960751 L 301.0431999999958989633341844 349.7135788046213135856395600 L 301.5999999999958788521325915 352.1683209439952946991544043 L 302.1567999999958587409309985 354.6384035602211415305617948 L 302.7135999999958386297294055 357.1205393441555705491552430 L 303.2703999999958185185278126 359.6113169205157594395435202 L 303.8271999999957984073262196 362.1072071711777307090329714 L 304.3839999999957782961246267 364.6045701713156873916924875 L 304.9407999999957581849230337 367.0996627255372792101676774 L 305.4975999999957380737214407 369.5886464877434790891423215 L 306.0543999999957179625198478 372.0675966450152745516414635 L 306.6111999999956978513182548 374.5325111424244755771913636 L 307.1679999999956777401166618 376.9793204223064112534657966 L 307.7247999999956576289150689 379.4038976482406242777637810 L 308.2815999999956375177134760 381.8020693807850395318226333 L 308.8383999999956174065118830 384.1696266689237860096165870 L 309.3951999999955972953102900 386.5023365182406661633152112 L 309.9519999999955771841086971 388.7959536940417297386692515 L 310.5087999999955570729071041 391.0462328150448971427384966 L 311.0655999999955369617055113 393.2489406908499213940307489 L 311.6223999999955168505039183 395.3998688542223328331222850 L 312.1791999999954967393023253 397.4948462372850681948814137 L 312.7359999999954766281007324 399.5297519390310399719131359 L 313.2927999999954565168991394 401.5005280301642812309144877 L 313.8495999999954364056975464 403.4031923401603207205804817 L 314.4063999999954162944959535 405.2338511706197075786424951 L 314.9631999999953961832943605 406.9887118784844968940224892 L 315.5199999999953760720927676 408.6640952725015636382011053 L 316.0767999999953559608911746 410.2564477664572090513199025 L 316.6335999999953358496895816 411.7623532331758633429075189 L 317.1903999999953157384879887 413.1785445040761762432642475 L 317.7471999999952956272863958 414.5019144602071587968339372 L 318.3039999999952755160848028 415.7295266621418286708452191 L 318.8607999999952554048832098 416.8586254678825853877318271 L 319.4175999999952352936816169 417.8866455900204398924794683 L 319.9743999999952151824800239 418.8112210457799930996003468 L 320.5311999999951950712784309 419.6301934562618485280438563 L 321.0879999999951749600768381 420.3416196541458053440957580 L 321.6447999999951548488752451 420.9437785623299996077643452 L 322.2015999999951347376736521 421.4351773094270511658502680 L 322.7583999999951146264720592 421.8145565517046458777391156 L 323.3151999999950945152704662 422.0808949749166051705155193 L 323.8719999999950744040688733 422.2334129534995383892237442 L 324.4287999999950542928672803 422.2715753487860047924821553 L 324.9855999999950341816656874 422.1950934321761024214936242 L 325.5423999999950140704640944 422.0039259235940753238007043 L 326.0991999999949939592625014 421.6982791400021276887836545 L 326.6559999999949738480609085 421.2786062532231237121038703 L 327.2127999999949537368593156 420.7456056608093567146985000 L 327.7695999999949336256577226 420.1002184781541074857595201 L 328.3263999999949135144561296 419.3436251644507716621982733 L 328.8831999999948934032545367 418.4772412994304224091261328 L 329.4399999999948732920529437 417.5027125320246259576606462 L 329.9967999999948531808513507 416.4219087261825458234909547 L 330.5535999999948330696497579 415.2369173329885285728124700 L 331.1103999999948129584481649 413.9500360219595143096427136 L 331.6671999999947928472465719 412.5637646079238881983523394 L 332.2239999999947727360449790 411.0807963131748314911106945 L 332.7807999999947526248433860 409.5040084076319940227980017 L 333.3375999999947325136417930 407.8364522725168209345743738 L 333.8943999999947124024402001 406.0813429355355742937187339 L 334.4511999999946922912386072 404.2420481277531725261553674 L 335.0079999999946721800370142 402.3220769142226968343815467 L 335.5647999999946520688354212 400.3250679519978966573271843 L 336.1215999999946319576338283 398.2547774303946487665465762 L 336.6783999999946118464322353 396.1150667492774432772624967 L 337.2351999999945917352306424 393.9098899917251440649934580 L 337.7919999999945716240290494 391.6432812476806667086511501 L 338.3487999999945515128274564 389.3193418451109054275368256 L 338.9055999999945314016258635 386.9422275448037396028411194 L 339.4623999999945112904242705 384.5161357542159553298451632 L 340.0191999999944911792226775 382.0452928147666630624238830 L 340.5759999999944710680210847 379.5339414156602972176083692 L 341.1327999999944509568194917 376.9863281857316394951595839 L 341.6895999999944308456178988 374.4066915129505226008295911 L 342.2463999999944107344163058 371.7992496391206539059955579 L 342.8031999999943906232147128 369.1681890749755065768885250 L 343.3599999999943705120131199 366.5176533783323076232107951 L 343.9167999999943504008115270 363.8517323352346547471469762 L 344.4735999999943302896099340 361.1744515811166654032741500 L 345.0303999999943101784083410 358.4897626959776138673892850 L 345.5871999999942900672067481 355.8015338043915101925070606 L 346.1439999999942699560051551 353.1135407079103356956887675 L 346.7007999999942498448035621 350.4294585740794904330878505 L 347.2575999999942297336019692 347.7528542028903911035679168 L 347.8143999999942096224003762 345.0871788880719284916172758 L 348.3711999999941895111987833 342.4357618871922237883490917 L 348.9279999999941693999971903 339.8018045111267921853936968 L 349.4847999999941492887955973 337.1883748400705351026355553 L 350.0415999999941291775940044 334.5984030699484420197838593 L 350.5983999999941090663924115 332.0346774898342920486390047 L 351.1551999999940889551908186 329.4998410878353664044126958 L 351.7119999999940688439892256 326.9963887798620911044148822 L 352.2687999999940487327876326 324.5266652527893068702624646 L 352.8255999999940286215860397 322.0928634107464309336658441 L 353.3823999999940085103844467 319.6970234106591179183235833 L 353.9391999999939883991828538 317.3410322707161824729027445 L 354.4959999999939682879812608 315.0266240331634646961352549 L 355.0527999999939481767796678 312.7553804607386513566188076 L 355.6095999999939280655780749 310.5287322441637728465124724 L 356.1663999999939079543764819 308.3479606964116963204366092 L 356.7231999999938878431748890 306.2141999079619945437850485 L 357.2799999999938677319732960 304.1284393359614762382866123 L 357.8367999999938476207717031 302.0915267991074072417845287 L 358.3935999999938275095701101 300.1041718491749275369665876 L 358.9503999999938073983685171 298.1669494894115025977280691 L 359.5071999999937872871669242 296.2803042095188597593313773 L 360.0639999999937671759653313 294.4445543066286098225307436 L 360.6207999999937470647637384 292.6598964615493279432338151 L 361.1775999999937269535621454 290.9264105396096125044635983 L 361.7343999999937068423605524 289.2440645856379617950615569 L 362.2911999999936867311589595 287.6127199829962113319936634 L 362.8479999999936666199573665 286.0321367471094902342384121 L 363.4047999999936465087557736 284.5019789246018967106740168 L 363.9615999999936263975541806 283.0218200699419153210101286 L 364.5183999999936062863525876 281.5911487724154277367816235 L 365.0751999999935861751509947 280.2093742072637724827011140 L 365.6319999999935660639494017 278.8758316859387687003390965 L 366.1887999999935459527478087 277.5897881816246130319096135 L 366.7455999999935258415462158 276.3504478074452535008020959 L 367.3023999999935057303446229 275.1569572261042280203469091 L 367.8591999999934856191430299 274.0084109710808569400815790 L 368.4159999999934655079414369 272.9038566609188803206246614 L 368.9727999999934453967398440 271.8423000895842147987361651 L 369.5295999999934252855382510 270.8227101773208835844286568 L 370.0863999999934051743366582 269.8440237678950383755823357 L 370.6431999999933850631350652 268.9051502595716570305957779 L 371.1999999999933649519334722 268.0049760586095449384676688 L 371.7567999999933448407318792 267.1423688454815882723873225 L 372.3135999999933659410089603 266.3161816454160849184281309 L 372.8703999999933870412860415 265.5252566962105735814958506 L 373.4271999999934081415631226 264.7684291075787854271202567 L 373.9839999999934292418402038 264.0445303075554115782945056 L 374.5407999999934503421172848 263.3523912726906918146951852 L 375.0975999999934714423943660 262.6908455399185082039063369 L 375.6543999999934925426714472 262.0587319990705390167680851 L 376.2111999999935136429485283 261.4548974660338725624815955 L 376.7679999999935347432256094 260.8781990375083870518461519 L 377.3247999999935558435026905 260.3275062292094652975175488 L 377.8815999999935769437797717 259.8017029001835493199716135 L 378.4383999999935980440568528 259.2996889666550233884597295 L 378.9951999999936191443339339 258.8203819095055892759068190 L 379.5519999999936402446110150 258.3627180801013461334629065 L 380.1087999999936613448880962 257.9256538097292619227118848 L 380.6655999999936824451651774 257.5081663283864894890366297 L 381.2223999999937035454422584 257.1092544990835688049439038 L 381.7791999999937246457193396 256.7279393741800627889067717 L 382.3359999999937457459964207 256.3632645805706051778116717 L 382.8927999999937668462735019 256.0142965407831717368954589 L 383.4495999999937879465505830 255.6801245372455996992163326 L 384.0063999999938090468276641 255.3598606271205944118207753 L 384.5631999999938301471047452 255.0526394152116900955936292 L 385.1199999999938512473818265 254.7576176925036163615582534 L 385.6767999999938723476589075 254.4739739479255793789628607 L 386.2335999999938934479359886 254.2009077609196514198804570 L 386.7903999999939145482130698 253.9376390823613841204083504 L 387.3471999999939356484901510 253.6834074113210845495084792 L 387.9039999999939567487672321 253.4374708750764033649005569 L 388.4607999999939778490443132 253.1991052196912899881671896 L 389.0175999999939989493213943 252.9676027183709311474402170 L 389.5743999999940200495984755 252.7422710046862898887927902 L 390.1311999999940411498755566 252.5224318376421923278603761 L 390.6879999999940622501526377 252.3074198054410018550915614 L 391.2447999999940833504297189 252.0965809746733131320913419 L 391.8015999999941044507067999 251.8892714915512581752565779 L 392.3583999999941255509838811 251.6848561416904388835883803 L 392.9151999999941466512609623 251.4827068748465809244763137 L 393.4719999999941677515380434 251.2822013009244588310764357 L 394.0287999999941888518151245 251.0827211635004532578700301 L 394.5855999999942099520922057 250.8836507970398507216813754 L 395.1423999999942310523692868 250.6843755739437468177399637 L 395.6991999999942521526463679 250.4842803475324555610252257 L 396.2559999999942732529234490 250.2827478970604755022696016 L 396.8127999999942943532005302 250.0791573808635558743655262 L 397.3695999999943154534776113 249.8728828037621277161998515 L 397.9263999999943365537546925 249.6632915048845119028915935 L 398.4831999999943576540317735 249.4497426721297545319326143 L 399.0399999999943787543088547 249.2315858895606629497265772 L 399.5967999999943998545859359 249.0081597241022336823116727 L 400.1535999999944209548630170 248.7787903580170716007676409 L 400.7103999999944420551400981 248.5427902737359615222464035 L 401.2671999999944631554171792 248.2994569977357803095922387 L 401.8239999999944842556942604 248.0480719102764481561370265 L 402.3807999999945053559713415 247.7878991279299592346655837 L 402.9375999999945264562484226 247.5181844659559264506161942 L 403.4943999999945475565255037 247.2381544876951445048144744 L 404.0511999999945686568025849 246.9470156482622622551303949 L 404.6079999999945897570796661 246.6439535399181944841373593 L 405.1647999999946108573567471 246.3281322465862563560653105 L 405.7215999999946319576338283 245.9986938150427288422387544 L 406.2783999999946530579109094 245.6547578503546114629211653 L 406.8351999999946741581879906 245.2954212431547517484868118 L 407.3919999999946952584650717 244.9197580363298319590844207 L 407.9487999999947163587421528 244.5268194386480561745382071 L 408.5055999999947374590192339 244.1156339927660829195824969 L 409.0623999999947585592963151 243.6852079049237661904451594 L 409.6191999999947796595733962 243.2345255434591859330003179 L 410.1759999999948007598504773 242.7625501130492532420035445 L 410.7327999999948218601275585 242.2682245113000797006227079 L 411.2895999999948429604046397 241.7504723739744292669110829 L 411.8463999999948640606817207 241.2081993147454234878897713 L 412.4031999999948851609588019 240.6402943649062819616209670 L 412.9599999999949062612358830 240.0456316179406240548151649 L 413.5167999999949273615129641 239.4230720832667702972311001 L 414.0735999999949484617900453 238.7714657528099534052519933 L 414.6303999999949695620671264 238.0896538833276011952004107 L 415.1871999999949906623442075 237.3764714966153731949087084 L 415.7439999999950117626212886 236.6307500988540220750640705 L 416.3007999999950328628983698 235.8513206194215947597569994 L 416.8575999999950539631754509 235.0370165684927822683884339 L 417.4143999999950750634525321 234.1866774116784068275147017 L 417.9711999999950961637296131 233.2991521588283887478354472 L 418.5279999999951172640066943 232.3733031629306571286264216 L 419.0847999999951383642837755 231.4080101237943975315639971 L 419.6415999999951594645608566 230.4021742899098100417395092 L 420.1983999999951805648379377 229.3547228505372042780171190 L 420.7551999999952016651150189 228.2646135086985258085453174 L 421.3119999999952227653921000 227.1308392243332950529340527 L 421.8687999999952438656691811 225.9524331154466884422996979 L 422.4255999999952649659462622 224.7284735036244363026725068 L 422.9823999999952860662233433 223.4580890888311504779058699 L 423.5391999999953071665004245 222.1404642369516415634222995 L 424.0959999999953282667775057 220.7748443620887353796196825 L 424.6527999999953493670545867 219.3605413842092296909195663 L 425.2095999999953704673316679 217.8969392413388264095885915 L 425.7663999999953915676087491 216.3834994341615485987280939 L 426.3231999999954126678858302 214.8197665795888401755557122 L 426.8799999999954337681629113 213.2053739486415164794408383 L 427.4367999999954548684399924 211.5400489628429721022939703 L 427.9935999999954759687170736 209.8236186222703376635934092 L 428.5503999999954970689941547 208.0560148374598175013971968 L 429.1071999999955181692712358 206.2372796365261666077609940 L 429.6639999999955392695483169 204.3675702181469317301557946 L 430.2207999999955603698253981 202.4471638204864457991997521 L 430.7775999999955814701024793 200.4764623757095910091171239 L 431.3343999999956025703795603 198.4559969194626083410781803 L 431.8911999999956236706566415 196.3864317245956142195713786 L 432.4479999999956447709337226 194.2685681284701735282993695 L 433.0047999999956658712108038 192.1033480234461337706382740 L 433.5615999999956869714878849 189.8918569805826426962388116 L 434.1183999999957080717649660 187.6353269772191519522882194 L 434.6751999999957291720420471 185.3351386999340075038370894 L 435.2319999999957502723191283 182.9928233954073527230595649 L 435.7887999999957713725962094 180.6100642429480849967167918 L 436.3455999999957924728732905 178.1886972238784511516721901 L 436.9023999999958135731503717 175.7307114646044878814024059 L 437.4591999999958346734274527 173.2382490320319305225164422 L 438.0159999999958557737045339 170.7136041620129681313973909 L 438.5727999999958768739816151 168.1592219037198332465266048 L 439.1295999999958979742586962 165.5776961652331077020268897 L 439.6863999999959190745357773 162.9717671481918443247375686 L 440.2431999999959401748128585 160.3443181620733638167071907 L 440.7999999999959612750899396 157.6983718115357454199928118 L 441.3567999999959823753670207 155.0370855532543915937064108 L 441.9135999999960034756441018 152.3637466218006455420663770 L 442.4703999999960245759211830 149.6817663273260297825591654 L 443.0271999999960456761982641 146.9946737311141034728242024 L 443.5839999999960667764753453 144.3061087084257286446605425 L 444.1407999999960878767524263 141.6198144114670232814508684 L 444.6975999999961089770295075 138.9396291487386821591106430 L 445.2543999999961300773065887 136.2694777004525558498452635 L 445.8111999999961511775836698 133.6133620931070418909788108 L 446.3679999999961722778607509 130.9753518596748479059973154 L 446.9247999999961933781378320 128.3595738151477571401907577 L 447.4815999999962144784149132 125.7702013803860035719613582 L 448.0383999999962355786919943 123.2114434903051341703890860 L 448.5951999999962566789690754 120.6875331253818367886291678 L 449.1519999999962777792461565 118.2027155082511638006792510 L 449.7087999999962988795232377 115.7612360097712008351796461 L 450.2655999999963199798003189 113.3673278113386366783288395 L 450.8223999999963410800773999 111.0251993724170174182575010 L 451.3791999999963621803544811 108.7390217541817101221113262 L 451.9359999999963832806315623 106.5129158518645522413237359 L 452.4927999999964043809086434 104.3509395897880838906720176 L 453.0495999999964254811857245 102.2570751341973460668555163 L 453.6063999999964465814628056 100.2352161798116902957644925 L 454.1631999999964676817398867 98.2891553665267353837956913 L 454.7199999999964887820169679 96.4225718828794815529192875 L 455.2767999999965098822940490 94.6390193127523566829495394 L 455.8335999999965309825711301 92.9419137813206135412258390 L 456.3903999999965520828482113 91.3345224554496980159020343 L 456.9471999999965731831252925 89.8199524526190581733923561 L 457.5039999999965942834023735 88.4011402109932259799999580 L 458.0607999999966153836794547 87.0808413714861044852000305 L 458.6175999999966364839565358 85.8616212205757169210566341 L 459.1743999999966575842336170 84.7458457402358248759336826 L 459.7311999999966786845106981 83.7356733086741455984736149 L 460.2879999999966997847877792 82.8330470926112571265302147 L 460.8447999999967208850648603 82.0396881686265624367138116 L 461.4015999999967419853419414 81.3570894076484685264460950 L 461.9583999999967630856190226 80.7865101530018283604306362 L 462.5151999999967841858961037 80.3289717185663283416374726 L 463.0719999999968052861731849 79.9852537295697882946399204 L 463.6287999999968263864502659 79.7558913243661370036837373 L 464.1855999999968474867273471 79.6411732312553500475379072 L 464.7423999999968685870044283 79.6411407300186346229035431 L 465.2991999999968896872815094 79.7555875033965135934010960 L 465.8559999999969107875585905 79.9840603792580414991656805 L 466.4127999999969318878356717 80.3258609597237036581418579 L 466.9695999999969529881127528 80.7800481290451191836628672 L 467.5263999999969740883898339 81.3454414276361489714399037 L 468.0831999999969951886669150 82.0206252753253384213394383 L 468.6399999999970162889439961 82.8039540226810199345190236 L 469.1967999999970373892210773 83.6935578051818967656079925 L 469.7535999999970584894981585 84.6873491710842973094012601 L 470.3103999999970795897752395 85.7830304501085079138533729 L 470.8671999999971006900523207 86.9781018265406397442044787 L 471.4239999999971217903294019 88.2698700770574311569305337 L 471.9807999999971428906064830 89.6554579305396329343598912 L 472.5375999999971639908835641 91.1318140043673876604657380 L 473.0943999999971850911606452 92.6957232692043939792370111 L 473.6511999999972061914377264 94.3438179920849909384135874 L 474.2079999999972272917148075 96.0725891057406576519402583 L 474.7647999999972483919918886 97.8783979505363673408642929 L 475.3215999999972694922689697 99.7574883341499566806002500 L 475.8783999999972905925460509 101.7059988532180391610874419 L 476.4351999999973116928231321 103.7199754205919153271509004 L 476.9919999999973327931002131 105.7953839415977930945208148 L 477.5487999999973538933772943 107.9281230827739253008701326 L 478.1055999999973749936543754 110.1140370769542959905606949 L 478.6623999999973960939314566 112.3489285092848077122577402 L 479.2191999999974171942085377 114.6285710297732317227333472 L 479.7759999999974382944856188 116.9487219392870308946423090 L 480.3327999999974593947626999 119.3051345975031375760503731 L 480.8895999999974804950397812 121.6935706031684475784497106 L 481.4463999999975015953168622 124.1098116991327609722380506 L 482.0031999999975226955939434 126.5496713569461806336846621 L 482.5599999999975437958710245 129.0090059983553928783332291 L 483.1167999999975648961481057 131.4837258137621865590934551 L 483.6735999999975859964251868 133.9698051406053281494242432 L 484.2303999999976070967022679 136.4632923676682752696838936 L 484.7871999999976281969793490 138.9603193344823487779630493 L 485.3439999999976492972564301 141.4571101982548852286451317 L 485.9007999999976703975335113 143.9499897440958539422221445 L 486.4575999999976914978105924 146.4353911177053168361320938 L 487.0143999999977125980876736 148.9098629631073208064625154 L 487.5711999999977336983647546 151.3700759514452508132838678 L 488.1279999999977547986418358 153.8128286902658451810547529 L 488.6847999999977758989189170 156.2350530060972840414497871 L 489.2415999999977969991959981 158.6338185964465603561279750 L 489.7983999999978180994730792 161.0063370505852886616082742 L 490.3551999999978391997501604 163.3499652416409981074233807 L 490.9119999999978603000272415 165.6622080955491902454213005 L 491.4687999999978814003043226 167.9407207453289854933350019 L 492.0255999999979025005814037 170.1833100819120937104618937 L 492.5823999999979236008584848 172.3879357153666892118100880 L 493.1391999999979447011355660 174.5527103628020776741417800 L 493.6959999999979658014126472 176.6758996815078254597845368 L 494.2527999999979869016897282 178.7559215679657003879772977 L 494.8095999999980080019668094 180.7913449452630786732735638 L 495.3663999999980291022438906 182.7808880631334669993511474 L 495.9231999999980502025209717 184.7234163363439899037861853 L 496.4799999999980713027980528 186.6179397484441611076988466 L 497.0367999999980924030751339 188.4636098489802700228779031 L 497.5935999999981135033522151 190.2597163731699591397254304 L 498.1503999999981346036292962 192.0056835137212836913297072 L 498.7071999999981557039063773 193.7010658749764893116207532 L 499.2639999999981768041834584 195.3455441398632347708523109 L 499.8207999999981979044605396 196.9389204802585400984800875 L 500.3775999999982190047376208 198.4811137413103482677693516 L 500.9343999999982401050147018 199.9721544300366128747252030 L 501.4911999999982612052917830 201.4121795381337154395851031 L 502.0479999999982823055688641 202.8014272283866968512218894 L 502.6047999999983034058459453 204.1402314133965606076278240 L 503.1615999999983245061230264 205.4290162545283618585519510 L 503.7183999999983456064001075 206.6682906080581549890240467 L 504.2751999999983667066771886 207.8586424444601938876786562 L 504.8319999999983878069542698 209.0007332656458411227854791 L 505.3887999999984089072313509 210.0952925437505821963194800 L 505.9455999999984300075084320 211.1431122037788913707127372 L 506.5023999999984511077855132 212.1450411710705382291782446 L 507.0591999999984722080625942 213.1019800031552808109817457 L 507.6159999999984933083396754 214.0148756241304088080804983 L 508.1727999999985144086167566 214.8847161782360529376963617 L 508.7295999999985355088938377 215.7125260178277263249195055 L 509.2863999999985566091709188 216.4993608394641343798762516 L 509.8431999999985777094480000 217.2463029803519372062936554 L 510.3999999999985988097250811 217.9544568859237282746713997 L 510.9567999999986199100021622 218.6249447578842367197656434 L 511.5135999999986410102792433 219.2589023906450208893185543 L 512.0703999999986621105563245 219.8574752026920980559528592 L 512.6271999999986832108334056 220.4218144680968444563499512 L 513.1839999999987043111104868 220.9530737520958667552406495 L 513.7407999999987254113875678 221.4524055534353083422397883 L 514.2975999999987465116646490 221.9209581550028909842827337 L 514.8543999999987676119417302 222.3598726831614681801833437 L 515.4111999999987887122188113 222.7702803751550673834932089 L 515.9679999999988098124958924 223.1533000529815811141531868 L 516.5247999999988309127729735 223.5100358012218531763200720 L 517.0815999999988520130500547 223.8415748454798000673567534 L 517.6383999999988731133271358 224.1489856273264954881578130 L 518.1951999999988942136042169 224.4333160709506872117676342 L 518.7519999999989153138812980 224.6955920360998772237574410 L 519.3087999999989364141583792 224.9368159513488343304032924 L 519.8655999999989575144354604 225.1579656212540829033722881 L 520.4223999999989786147125414 225.3599932005435751610396740 L 520.9791999999989997149896226 225.5438243281466571913777368 L 521.5359999999990208152667038 225.7103574135885465009228786 L 522.0927999999990419155437849 225.8604630680554089898019281 L 522.6495999999990630158208660 225.9949836722729548110777386 L 523.2063999999990841160979471 226.1147330732369450008908036 L 523.7631999999991052163750282 226.2204964017780663976253663 L 524.3199999999991263166521094 226.3130300029378478843256062 L 524.8767999999991474169291905 226.3930614711714556600933671 L 525.4335999999991685172062716 226.4612897824722598609052208 L 525.9903999999991896174833528 226.5183855156320447873004772 L 526.5471999999992107177604340 226.5649911550022283327858001 L 527.1039999999992318180375150 226.6017214673050383932917384 L 527.6607999999992529183145962 226.6291639452535159697058967 L 528.2175999999992740185916773 226.6478793109737073970440710 L 528.7743999999992951188687585 226.6584020724772084628047726 L 529.3311999999993162191458396 226.6612411267047838177764636 L 529.8879999999993373194229207 226.6568804029478605421843440 L 530.4447999999993584197000018 226.6457795407538958383971324 L 531.0015999999993795199770829 226.6283745967271881690171160 L 531.5583999999994006202541641 226.6050787749509206984536528 L 532.1151999999994217205312452 226.5762831760718959787463215 L 532.6719999999994428208083264 226.5423575604078327838664109 L 533.2287999999994639210854074 226.5036511207545173451904929 L 533.7855999999994850213624886 226.4604932608844446069914132 L 534.3423999999995061216395698 226.4131943760391075433820637 L 534.8991999999995272219166509 226.3620466320219189645020682 L 535.4559999999995483221937320 226.3073247397951210195069887 L 536.0127999999995694224708132 226.2492867227738455593311073 L 536.5695999999995905227478943 226.1881746742885152349581782 L 537.1263999999996116230249754 226.1242155029563286235590643 L 537.6831999999996327233020565 226.0576216639595311293694142 L 538.2399999999996538235791376 225.9885918744743235434905652 L 538.7967999999996749238562188 225.9173118117273553936049286 L 539.3535999999996960241333000 225.8439547923775866008118858 L 539.9103999999997171244103810 225.7686824321297015908764175 L 540.4671999999997382246874622 225.6916452846795797526624484 L 541.0239999999997593249645434 225.6129834592752538095320840 L 541.5807999999997804252416245 225.5328272163449976339677505 L 542.1375999999998015255187056 225.4512975408014451665176617 L 542.6943999999998226257957867 225.3685066927738036568484859 L 543.2511999999998437260728679 225.2845587356526130632753772 L 543.8079999999998648263499490 225.1995500414502003512969471 L 544.3647999999998859266270301 225.1135697735898118695037814 L 544.9215999999999070269041112 225.0267003473319128807143366 L 545.4783999999999281271811924 224.9390178681339896490006442 L 546.0351999999999492274582736 224.8505925483165552858366709 L 546.5919999999999703277353546 224.7614891024744140738770662 L 547.1487999999999914280124358 224.6717671221311982687751652 L 547.7056000000000125282895169 224.5814814301838553411982957 L 548.2624000000000336285665981 224.4906824157255994152867137 L 548.8192000000000547288436792 224.3994163498700522563211734 L 549.3760000000000758291207603 224.3077256832264526250260891 L 549.9328000000000969293978414 224.2156493256967572473096576 L 550.4896000000001180296749226 224.1232229092803866314180065 L 551.0464000000001391299520037 224.0304790345827527324000054 L 551.6032000000001602302290848 223.9374475017278625088579246 L 552.1600000000001813305061660 223.8441555263766535125805982 L 552.7168000000002024307832472 223.7506279415494627738070221 L 553.2736000000002235310603282 223.6568873859434944950663748 L 553.8304000000002446313374094 223.5629544794277495286157395 L 554.3872000000002657316144905 223.4688479863842763458355496 L 554.9440000000002868318915716 223.3745849675505577014433812 L 555.5008000000003079321686528 223.2801809210012720837331320 L 556.0576000000003290324457339 223.1856499128885820137924155 L 556.6144000000003501327228150 223.0910046985416156732166352 L 557.1712000000003712329998961 222.9962568345038909830198767 L 557.7280000000003923332769773 222.9014167820667875474782704 L 558.2848000000004134335540584 222.8064940028342462152721736 L 558.8416000000004345338311396 222.7114970468319940325822397 L 559.3984000000004556341082206 222.6164336336509591192841147 L 559.9552000000004767343853018 222.5213107270924811261399631 L 560.5120000000004978346623830 222.4261346037593958246958436 L 561.0688000000005189349394641 222.3309109160150135083474273 L 561.6256000000005400352165452 222.2356447497095451500589055 L 562.1824000000005611354936263 222.1403406770516482845086632 L 562.7392000000005822357707075 222.0450028049815194286509268 L 563.2960000000006033360477886 221.9496348193813692143786891 L 563.8528000000006244363248697 221.8542400254385434562228359 L 564.4096000000006455366019508 221.7588213844578555189457347 L 564.9664000000006666368790320 221.6633815474003783574374893 L 565.5232000000006877371561132 221.5679228854080250836015390 L 566.0800000000007088374331942 221.4724475175567071823697536 L 566.6368000000007299377102754 221.3769573360634706678714187 L 567.1936000000007510379873566 221.2814540291584873473359115 L 567.7504000000007721382644377 221.1859391018167162457075392 L 568.3072000000007932385415188 221.0904138945312253176448773 L 568.8640000000008143388185999 220.9948796002957642770070380 L 569.4208000000008354390956810 220.8993372799525396477093865 L 569.9776000000008565393727623 220.8037878760486543150420858 L 570.5344000000008776396498433 220.7082322253339539871082783 L 571.0912000000008987399269244 220.6126710700224623125838737 L 571.6480000000009198402040056 220.5171050679298217674547307 L 572.2048000000009409404810868 220.4215348015901534406424388 L 572.7616000000009620407581678 220.3259607864472755522911030 L 573.3184000000009831410352490 220.2303834782069948960980809 L 573.8752000000010042413123301 220.1348032794303041607501352 L 574.4320000000010253415894113 220.0392205454401538163485460 L 574.9888000000010464418664924 219.9436355896082051497586462 L 575.5456000000010675421435735 219.8480486880824518921192142 L 576.1024000000010886424206547 219.7524600840104065380131715 L 576.6592000000011097426977357 219.6568699913087088226859578 L 577.2160000000011308429748169 219.5612785980242647188021010 L 577.7728000000011519432518981 219.4656860693286279199535707 L 578.3296000000011730435289792 219.3700925501832848703761177 L 578.8864000000011941438060602 219.2744981677095596298935713 L 579.4432000000012152440831415 219.1789030332940422240994848 L 580.0000000000012363443602226 219.0833072444575076639002495 L 580.5568000000012574446373037 218.9877108865120910093556479 L 581.1136000000012785449143848 218.8921140340297148974002540 L 581.6704000000012996451914660 218.7965167521417410393761808 L 582.2272000000013207454685471 218.7009190976885081673467917 L 582.7840000000013418457456283 218.6053211202348716124532757 L 583.3408000000013629460227093 218.5097228629668867731320840 L 583.8976000000013840462997905 218.4141243634826559845881396 L 584.4544000000014051465768717 218.3185256544891907903860328 L 585.0112000000014262468539528 218.2229267644159210378281462 L 585.5680000000014473471310339 218.1273277179545446724517888 L 586.1248000000014684474081150 218.0317285365332139098389537 L 586.6816000000014895476851962 217.9361292387331949793605190 L 587.2384000000015106479622773 217.8405298406542812313565112 L 587.7952000000015317482393584 217.7449303562350448141652730 L 588.3520000000015528485164395 217.6493307975334991303621261 L 588.9088000000015739487935207 217.5537311749723468068395959 L 589.4656000000015950490706019 217.4581314975538900805910696 L 590.0224000000016161493476829 217.3625317730472570332267423 L 590.5792000000016372496247641 217.2669320081521007193003925 L 591.1360000000016583499018453 217.1713322086413007946011552 L 591.6928000000016794501789264 217.0757323794850911132433188 L 592.2496000000017005504560075 216.9801325249594790012253043 L 592.8064000000017216507330886 216.8845326487401767856511015 L 593.3632000000017427510101697 216.7889327539844690484471812 L 593.9200000000017638512872509 216.6933328434021654255540548 L 594.4768000000017849515643320 216.5977329193171602531956902 L 595.0336000000018060518414131 216.5021329837209080881876844 L 595.5904000000018271521184943 216.4065330383185757530858002 L 596.1472000000018482523955755 216.3109330845690914853681382 L 596.7040000000018693526726565 216.2153331237197457041313934 L 597.2608000000018904529497377 216.1197331568359271495675481 L 597.8176000000019115532268188 216.0241331848271619057536933 L 598.3744000000019326535039000 215.9285332084691015156844666 L 598.9312000000019537537809811 215.8329332284228399737221101 L 599.4880000000019748540580622 215.7373332452513473208218405 L 600.0448000000019959543351433 215.6417332594336212873524042 L 600.6016000000020170546122244 215.5461332713769992223499610 L 601.1584000000020381548893056 215.4505332814274887927770882 L 601.7152000000020592551663867 215.3549332898789134826955660 L 602.2720000000020803554434679 215.2593332969804306535147968 L 602.8288000000021014557205489 215.1637333029432535743315688 L 603.3856000000021225559976301 215.0681333079462943895047526 L 603.9424000000021436562747113 214.9725333121409402981072390 L 604.4992000000021647565517924 214.8769333156552459781115279 L 605.0560000000021858568288735 214.7813333185973830493272392 L 605.6128000000022069571059547 214.6857333210587003661610576 L 606.1696000000022280573830358 214.5901333231162359342173811 L 606.7264000000022491576601169 214.4945333248349988627031355 L 607.2832000000022702579371980 214.3989333262696852511197676 L 607.8400000000022913582142791 214.3033333274664117655087617 L 608.3968000000023124584913603 214.2077333284638477698772855 L 608.9536000000023335587684415 214.1121333292946304904802446 L 609.5104000000023546590455225 214.0165333299860549084077850 L 610.0672000000023757593226037 213.9209333305610820641362579 L 610.6240000000023968595996849 213.8253333310389935710086699 L 611.1808000000024179598767660 213.7297333314358515436263511 L 611.7376000000024390601538471 213.6341333317651884904364578 L 612.2944000000024601604309282 213.5385333320382726570348571 L 612.8512000000024812607080094 213.4429333322645502650042696 L 613.4080000000025023609850905 213.3473333324519285447706807 L 613.9648000000025234612621716 213.2517333326069703206921229 L 614.5216000000025445615392527 213.1561333327351416648080354 L 615.0784000000025656618163339 213.0605333328410241714815735 L 615.6352000000025867620934151 212.9649333329284564738278125 L 616.1920000000026078623704961 212.8693333330005873123743261 L 616.7488000000026289626475773 212.7737333330600524305964427 L 617.3056000000026500629246584 212.6781333331090276435778227 L 617.8624000000026711632017396 212.5825333331493349753316124 L 618.4192000000026922634788207 212.4869333331824957274610217 L 618.9760000000027133637559018 212.3913333332097658582663750 L 619.5328000000027344640329829 212.2957333332321536722986366 L 620.0896000000027555643100641 212.2001333332505259576805657 L 620.6464000000027766645871452 212.1045333332655902965531898 L 621.2032000000027977648642263 212.0089333332779304441828571 L 621.7600000000028188651413075 211.9133333332880593976218127 L 622.3168000000028399654183887 211.8177333332963309479405703 L 622.8736000000028610656954697 211.7221333333030988862096440 L 623.4304000000028821659725509 211.6265333333086108661783934 L 623.9872000000029032662496320 211.5309333333131322311497039 L 624.5440000000029243665267131 211.4353333333168221871053068 L 625.1008000000029454668037943 211.3397333333198222504734076 L 625.6576000000029665670808754 211.2441333333222562481286861 L 626.2144000000029876673579565 211.1485333333242480069458225 L 626.7712000000030087676350376 211.0529333333258682851389192 L 627.3280000000030298679121188 210.9573333333271878409220789 L 627.8848000000030509681891999 210.8617333333282597429558791 L 628.4416000000030720684662811 210.7661333333291193703473708 L 628.9984000000030931687433621 210.6705333333298197917571315 L 629.5552000000031142690204433 210.5749333333303786967386865 L 630.1120000000031353692975245 210.4793333333308668435061388 L 630.6688000000031564695746056 210.3837333333312311633989112 L 631.2256000000031775698516867 210.2881333333315247250775806 L 631.7824000000031986701287678 210.1925333333317652180956733 L 632.3392000000032197704058490 210.0969333333319526424531887 L 632.8960000000032408706829301 210.0013333333321223772571784 L 633.4528000000032619709600112 209.9057333333322390434005911 L 634.0096000000032830712370923 209.8101333333323380199904780 L 634.5664000000033041715141735 209.7145333333324193070268393 L 635.1232000000033252717912547 209.6189333333324829045096749 L 635.6800000000033463720683357 209.5233333333325465019925104 L 636.2368000000033674723454169 209.4277333333325747203682947 L 636.7936000000033885726224981 209.3321333333326029387440789 L 637.3504000000034096728995792 209.2365333333326311571198630 L 637.9072000000034307731766603 209.1409333333326416859421216 L 638.4640000000034518734537414 209.0453333333326699043179057 L 639.0208000000034729737308225 208.9497333333326804331401643 L 639.5776000000034940740079037 208.8541333333326732724088970 L 640.1344000000035151742849848 208.7585333333326838012311554 L 640.6912000000035362745620659 208.6629333333326766404998883 L 641.2480000000035573748391471 208.5673333333327048588756725 L 641.8048000000035784751162283 208.4717333333326976981444053 L 642.3616000000035995753933093 208.3761333333326905374131381 L 642.9184000000036206756703905 208.2805333333326833766818708 L 643.4752000000036417759474716 208.1849333333326762159506036 L 644.0320000000036628762245528 208.0893333333327044343263879 L 644.5888000000036839765016339 207.9937333333326972735951207 L 645.1456000000037050767787150 207.8981333333326901128638535 L 645.7024000000037261770557961 207.8025333333326829521325862 L 646.2592000000037472773328772 207.7069333333326757914013190 L 646.8160000000037683776099584 207.6113333333326863202235775 L 647.3728000000037894778870395 207.5157333333326791594923103 L 647.9296000000038105781641207 207.4201333333326719987610431 L 648.4864000000038316784412017 207.3245333333326648380297760 L 649.0432000000038527787182829 207.2289333333326576772985088" fill="none" stroke="#FF0000" stroke-width="2" /></g></g></g></g></g></g></svg>