<?xml version="1.0" standalone="no"?>
<!DOCTYPE svg PUBLIC "-//W3C//DTD SVG 1.1//EN"
"http://www.w3.org/Graphics/SVG/1.1/DTD/svg11.dtd">
<svg height="600" version="1.1" width="800" xmlns="http://www.w3.org/2000/svg"><g><rect fill="#f9f9f9" height="600" width="800" x="0" y="0" /><g transform="translate(40 40)"><g transform="translate(40 0)"><text fill="#333" font-family="Monaco" font-size="16" x="0" y="0">Trapezregel</text><g transform="translate(0 20)"><g transform="translate(0 0)"><rect fill="#FF0000" height="10" width="10" x="0" y="-10" /><text fill="#666" font-family="Monaco" font-size="14" x="14" y="0">Trapezregel</text></g><g transform="translate(134 0)"><rect fill="#0000FF" height="10" width="10" x="0" y="-10" /><text fill="#666" font-family="Monaco" font-size="14" x="14" y="0">Trapezkanten</text></g></g></g><g transform="translate(0 38)"><g transform="translate(40 0)"><g class="axis bottom"><g class="tick"><line stroke="#eee" stroke-width="1" x1="226.6666666666666666666666666" x2="226.6666666666666666666666666" y1="0" y2="464.0" /><text dy="1em" fill="#9c9c9c" font-family="Monaco" text-anchor="middle" x="226.6666666666666666666666666" y="468.0">2.5</text></g><g class="tick"><line stroke="#eee" stroke-width="1" x1="453.3333333333333333333333334" x2="453.3333333333333333333333334" y1="0" y2="464.0" /><text dy="1em" fill="#9c9c9c" font-family="Monaco" text-anchor="middle" x="453.3333333333333333333333334" y="468.0">5</text></g><g class="tick"><line stroke="#eee" stroke-width="1" x1="680" x2="680" y1="0" y2="464.0" /><text dy="1em" fill="#9c9c9c" font-family="Monaco" text-anchor="middle" x="680" y="468.0">7.5</text></g><g class="tick"><line stroke="#a8a8a8" stroke-width="1" x1="0" x2="0" y1="0" y2="464.0" /><text dy="1em" fill="#9c9c9c" font-family="Monaco" text-anchor="middle" x="0" y="468.0">0</text></g></g><g class="axis left"><g class="tick"><line stroke="#eee" stroke-width="1" x1="-4" x2="680.0" y1="460" y2="460" /><text dy="0.32em" fill="#9c9c9c" font-family="Monaco" text-anchor="end" x="-8" y="460">-1</text></g><g class="tick"><line stroke="#eee" stroke-width="1" x1="-4" x2="680.0" y1="368.0" y2="368.0" /><text dy="0.32em" fill="#9c9c9c" font-family="Monaco" text-anchor="end" x="-8" y="368.0">-0.5</text></g><g class="tick"><line stroke="#eee" stroke-width="1" x1="-4" x2="680.0" y1="184.0" y2="184.0" /><text dy="0.32em" fill="#9c9c9c" font-family="Monaco" text-anchor="end" x="-8" y="184.0">0.5</text></g><g class="tick"><line stroke="#eee" stroke-width="1" x1="-4" x2="680.0" y1="92.0" y2="92.0" /><text dy="0.32em" fill="#9c9c9c" font-family="Monaco" text-anchor="end" x="-8" y="92.0">1</text></g><g class="tick"><line stroke="#eee" stroke-width="1" x1="-4" x2="680.0" y1="0" y2="0" /><text dy="0.32em" fill="#9c9c9c" font-family="Monaco" text-anchor="end" x="-8" y="0">1.5</text></g><g class="tick"><line stroke="#a8a8a8" stroke-width="1" x1="-4" x2="680.0" y1="276.0" y2="276.0" /><text dy="0.32em" fill="#9c9c9c" font-family="Monaco" text-anchor="end" x="-8" y="276.0">0</text></g></g><g><g class="series lines"><path d="M 90.66666666666666666666666664 257.5999996207477323872936381 L 145.0666666666666747194843386 239.0597544679806407685873636 L 199.4666666666666827723020106 152.8434790210546641020528114 L 253.8666666666666908251196825 225.8496633028968241241329907 L 308.2666666666666988779373545 379.9300849172142289233988777 L 362.6666666666666666666666666 217.4952861597210742594654675 L 417.0666666666666344553959789 154.2120636394199886254341437 L 471.4666666666666022441252911 56.9811115294937575725953138 L 525.8666666666665700328546033 168.9742734617359980475725934 L 580.2666666666665378215839155 158.2399994342221152265892670 L 634.6666666666665056103132278 147.2000000000000285993451144" fill="none" stroke="#FF0000" stroke-width="2" /></g><g class="series dots"><circle cx="90.66666666666666666666666664" cy="257.5999996207477323872936381" fill="#0000FF" r="3" /><circle cx="145.0666666666666747194843386" cy="239.0597544679806407685873636" fill="#0000FF" r="3" /><circle cx="199.4666666666666827723020106" cy="152.8434790210546641020528114" fill="#0000FF" r="3" /><circle cx="253.8666666666666908251196825" cy="225.8496633028968241241329907" fill="#0000FF" r="3" /><circle cx="308.2666666666666988779373545" cy="379.9300849172142289233988777" fill="#0000FF" r="3" /><circle cx="362.6666666666666666666666666" cy="217.4952861597210742594654675" fill="#0000FF" r="3" /><circle cx="417.0666666666666344553959789" cy="154.2120636394199886254341437" fill="#0000FF" r="3" /><circle cx="471.4666666666666022441252911" cy="56.9811115294937575725953138" fill="#0000FF" r="3" /><circle cx="525.8666666666665700328546033" cy="168.9742734617359980475725934" fill="#0000FF" r="3" /><circle cx="580.2666666666665378215839155" cy="158.2399994342221152265892670" fill="#0000FF" r="3" /><circle cx="634.6666666666665056103132278" cy="147.2000000000000285993451144" fill="#0000FF" r="3" /></g></g></g></g></g></g></svg>